<?xml version="1.0" encoding="UTF-8" standalone="no"?>
<!-- Created with Inkscape (http://www.inkscape.org/) -->

<svg
   width="210mm"
   height="297mm"
   viewBox="0 0 210 297"
   version="1.1"
   id="svg1"
   xml:space="preserve"
   inkscape:version="1.3.2 (091e20e, 2023-11-25)"
   sodipodi:docname="icon.svg"
   xmlns:inkscape="http://www.inkscape.org/namespaces/inkscape"
   xmlns:sodipodi="http://sodipodi.sourceforge.net/DTD/sodipodi-0.dtd"
   xmlns="http://www.w3.org/2000/svg"
   xmlns:svg="http://www.w3.org/2000/svg"><sodipodi:namedview
     id="namedview1"
     pagecolor="#ffffff"
     bordercolor="#000000"
     borderopacity="0.25"
     inkscape:showpageshadow="2"
     inkscape:pageopacity="0.0"
     inkscape:pagecheckerboard="0"
     inkscape:deskcolor="#d1d1d1"
     inkscape:document-units="mm"
     inkscape:zoom="0.8400142"
     inkscape:cx="254.7576"
     inkscape:cy="469.03969"
     inkscape:window-width="2352"
     inkscape:window-height="1283"
     inkscape:window-x="0"
     inkscape:window-y="25"
     inkscape:window-maximized="0"
     inkscape:current-layer="layer1" /><defs
     id="defs1"><inkscape:path-effect
       effect="powermask"
       id="path-effect8"
       is_visible="true"
       lpeversion="1"
       uri="#mask-powermask-path-effect8"
       invert="false"
       hide_mask="false"
       background="true"
       background_color="#ffffffff" /><mask
       maskUnits="userSpaceOnUse"
       id="mask-powermask-path-effect8"><path
         id="mask-powermask-path-effect8_box"
         style="fill:#ffffff;fill-opacity:1"
         d="M 6.5571229,2.9285382 H 26.352293 V 26.278293 H 6.5571229 Z" /><g
         id="g8"
         style="fill:none;fill-rule:evenodd"
         transform="matrix(0.66666688,0,0,0.6666687,0.11569902,-0.06595273)"
         inkscape:label="g4"><path
           fill="#ea4335"
           d="M 5.795,8.361 C 16.952,-4.624 37.64,-2.06 45.373,13.107 c -5.444,0.002 -13.969,-10e-4 -18.586,0 -3.349,0.001 -5.51,-0.075 -7.852,1.158 -2.753,1.449 -4.83,4.135 -5.555,7.29 L 5.795,8.36 Z"
           id="path5" /><path
           fill="#4285f4"
           d="m 16.015,24 c 0,4.4 3.579,7.98 7.977,7.98 4.398,0 7.976,-3.58 7.976,-7.98 0,-4.401 -3.578,-7.982 -7.976,-7.982 -4.398,0 -7.977,3.58 -7.977,7.981 z"
           id="path6" /><path
           fill="#34a853"
           d="m 27.088,34.446 c -4.477,1.33 -9.717,-0.145 -12.587,-5.1 A 7917.733,7917.733 0 0 1 3.892,10.898 C -5.322,25.02 2.62,44.264 19.346,47.55 l 7.742,-13.103 z"
           id="path7" /><path
           fill="#fbbc05"
           d="m 31.401,16.018 c 3.73,3.468 4.542,9.084 2.016,13.439 -1.903,3.28 -7.977,13.531 -10.92,18.495 C 39.73,49.015 52.294,32.124 46.62,16.018 H 31.4 Z"
           id="path8" /></g></mask><filter
       id="mask-powermask-path-effect8_inverse"
       inkscape:label="filtermask-powermask-path-effect8"
       style="color-interpolation-filters:sRGB"
       height="100"
       width="100"
       x="-50"
       y="-50"><feColorMatrix
         id="mask-powermask-path-effect8_primitive1"
         values="1"
         type="saturate"
         result="fbSourceGraphic" /><feColorMatrix
         id="mask-powermask-path-effect8_primitive2"
         values="-1 0 0 0 1 0 -1 0 0 1 0 0 -1 0 1 0 0 0 1 0 "
         in="fbSourceGraphic" /></filter></defs><g
     inkscape:label="Layer 1"
     inkscape:groupmode="layer"
     id="layer1"
     transform="matrix(16,0,0,16,-1038.9663,-2510.1691)"><path
       fill="#f5e6fe"
       d="m 74.283583,166.91574 h -5.291667 c -0.876829,0 -1.5875,-0.71067 -1.5875,-1.5875 v -5.29166 c 0,-0.87683 0.710671,-1.5875 1.5875,-1.5875 h 5.291667 c 0.876829,0 1.5875,0.71067 1.5875,1.5875 v 5.29166 c 0,0.87683 -0.710671,1.5875 -1.5875,1.5875 z"
       id="path1"
       style="fill:#e3f7ff;fill-opacity:1;stroke-width:0.264583" /><g
       id="g1"
       transform="matrix(0.30146605,0,0,0.30146605,66.677214,158.27998)"
       mask="url(#mask-powermask-path-effect8)"
       inkscape:path-effect="#path-effect8"><g
         id="g2"
         transform="matrix(1.4829308,0,0,1.4829308,-7.2721851,-7.9349082)"
         style="fill:#0078ff;fill-opacity:1"><path
           fill="#d9a4fc"
           d="m 10,22.397 h 11.265 c 0,-3.22 -1.838,-6.079 -4.664,-7.923 z"
           id="path2"
           style="fill:#0078ff;fill-opacity:1"
           inkscape:original-d="m 10,22.397 h 11.265 c 0,-3.22 -1.838,-6.079 -4.664,-7.923 z" /><polygon
           fill="#be63f9"
           points="10,22.397 22,8 10,8 "
           id="polygon1"
           style="fill:#0078ff;fill-opacity:1"
           d="M 10,8 V 22.397 L 22,8 Z"
           inkscape:label="polygon1" /></g></g></g></svg>
